<?xml version="1.0" standalone="no"?><!DOCTYPE svg PUBLIC "-//W3C//DTD SVG 1.1//EN" "http://www.w3.org/Graphics/SVG/1.1/DTD/svg11.dtd"><svg t="1711371192940" class="icon" viewBox="0 0 1024 1024" version="1.1" xmlns="http://www.w3.org/2000/svg" p-id="4321" xmlns:xlink="http://www.w3.org/1999/xlink" width="200" height="200"><path d="M153.6 0h716.8C956.8 0 1024 67.2 1024 153.6v716.8c0 86.4-67.2 153.6-153.6 153.6H153.6C67.2 1024 0 956.8 0 870.4V153.6C0 67.2 67.2 0 153.6 0z" fill="#E12519" p-id="4322"></path><path d="M384 166.4c6.4 6.4 9.6 12.8 9.6 22.4-3.2 19.2-9.6 35.2-22.4 48-6.4 6.4-12.8 12.8-16 19.2h12.8v22.4c-6.4 25.6-9.6 54.4-16 80 0 6.4-3.2 9.6-3.2 16-3.2 9.6-3.2 9.6 9.6 12.8v-19.2-22.4-9.6c0-3.2 3.2-3.2 6.4-3.2 6.4 6.4 12.8 12.8 16 19.2 3.2 9.6 6.4 19.2 6.4 28.8v12.8c3.2-3.2 6.4-3.2 9.6-6.4 22.4-22.4 35.2-51.2 44.8-83.2 0 0 0-3.2-3.2-6.4s-9.6-6.4-16-9.6c-3.2-3.2-6.4-9.6 0-12.8 16-16 38.4-25.6 57.6-16 12.8 6.4 16 12.8 9.6 28.8-12.8 28.8-25.6 54.4-38.4 83.2-9.6 22.4-22.4 38.4-38.4 54.4l-3.2 3.2c3.2 0 3.2 0 6.4-3.2 12.8-3.2 25.6-9.6 38.4-12.8 9.6-3.2 22.4-3.2 32 3.2 6.4 3.2 9.6 9.6 6.4 16 0 3.2-3.2 6.4-3.2 9.6-19.2 22.4-35.2 44.8-57.6 64-25.6 19.2-51.2 35.2-76.8 48-9.6 3.2-16 6.4-25.6 12.8 3.2 0 3.2 3.2 6.4 3.2 9.6 3.2 16 9.6 12.8 22.4 0 3.2 0 6.4-3.2 9.6l-3.2 9.6c-3.2 6.4-3.2 16-6.4 22.4 9.6-3.2 16-6.4 22.4-12.8 9.6-12.8 22.4-16 35.2-12.8 6.4 3.2 12.8 3.2 19.2 6.4 6.4 3.2 9.6 9.6 9.6 19.2 0 6.4-6.4 12.8-12.8 16-6.4 3.2-16 6.4-22.4 6.4-12.8 3.2-25.6 6.4-38.4 12.8-6.4 3.2-12.8 6.4-16 9.6-6.4 3.2-6.4 6.4-6.4 12.8v118.4c0 6.4 0 9.6 3.2 16 3.2 16-6.4 32-19.2 35.2-3.2 0-9.6 0-12.8-3.2-19.2-12.8-41.6-25.6-60.8-38.4-16-9.6-28.8-19.2-41.6-32 0 0 0-3.2-3.2-3.2 32 6.4 64 22.4 96 32V704c-12.8 6.4-25.6 12.8-38.4 16-12.8 6.4-25.6 12.8-41.6 19.2-9.6 3.2-19.2 3.2-25.6-3.2-9.6-6.4-16-16-22.4-22.4-6.4-9.6-3.2-16 6.4-16 38.4-9.6 76.8-19.2 115.2-32 9.6-3.2 16-9.6 19.2-22.4 3.2-9.6 6.4-19.2 9.6-32-6.4 0-12.8 3.2-19.2 3.2h-22.4c-6.4 0-9.6-6.4-12.8-12.8 0-9.6-3.2-19.2-3.2-28.8 9.6 0 16 3.2 22.4 3.2h9.6c41.6-22.4 83.2-44.8 118.4-76.8 9.6-9.6 19.2-19.2 28.8-32 3.2-3.2 3.2-3.2 6.4-9.6-6.4 3.2-12.8 3.2-16 3.2-57.6 16-112 41.6-163.2 70.4-41.6 22.4-80 51.2-115.2 76.8l-28.8 19.2c-12.8 9.6-22.4 22.4-22.4 41.6 0 16-6.4 25.6-16 35.2-12.8 9.6-22.4 9.6-32-6.4-9.6-16-12.8-32-6.4-51.2 3.2-12.8 6.4-25.6 12.8-38.4 3.2-12.8 6.4-25.6 9.6-41.6 12.8 12.8 28.8 25.6 35.2 44.8 86.4-64 176-121.6 275.2-163.2l-3.2-3.2c-12.8-9.6-28.8-19.2-41.6-28.8-9.6-6.4-12.8-6.4-22.4 3.2-9.6 9.6-16 22.4-25.6 35.2-3.2 3.2-6.4 6.4-12.8 6.4-3.2 0-9.6 0-12.8-3.2-6.4-3.2-6.4-6.4-3.2-12.8 9.6-9.6 19.2-19.2 28.8-32l9.6-9.6c0-3.2 0-12.8-9.6-16-3.2-3.2-9.6-3.2-12.8-3.2-6.4-3.2-9.6-6.4-6.4-12.8 12.8 0 28.8-3.2 41.6-3.2 3.2 0 6.4-3.2 9.6-6.4 9.6-25.6 19.2-54.4 28.8-80v-3.2c-3.2 3.2-6.4 3.2-6.4 3.2l-38.4 28.8c-6.4 6.4-16 6.4-25.6 3.2-6.4-6.4-9.6-9.6-12.8-16-6.4-6.4-3.2-12.8 3.2-12.8 22.4-3.2 35.2-22.4 51.2-35.2 16-12.8 28.8-28.8 35.2-48 6.4-9.6 9.6-19.2 12.8-28.8 3.2-12.8 16-16 25.6-6.4z m-214.4 208c3.2 6.4 9.6 9.6 12.8 16 9.6 19.2 16 38.4 25.6 57.6 0 3.2 3.2 6.4 3.2 9.6 0 9.6-6.4 16-12.8 22.4H192c-19.2 0-28.8-12.8-32-25.6-6.4-25.6-9.6-48-3.2-73.6 0-3.2 3.2-6.4 3.2-6.4 3.2-3.2 9.6 0 9.6 0zM208 320c16 9.6 25.6 22.4 35.2 38.4 3.2 6.4 6.4 12.8 6.4 19.2 0 12.8-9.6 25.6-19.2 32-6.4 3.2-19.2 0-22.4-9.6 0-3.2-3.2-6.4-3.2-9.6 0-12.8-3.2-25.6-9.6-38.4-3.2-6.4-3.2-12.8-6.4-19.2 0-3.2 0-6.4 3.2-9.6 9.6-3.2 12.8-6.4 16-3.2z m780.8-67.2c3.2 9.6 3.2 19.2 0 28.8-3.2 6.4-9.6 16-12.8 22.4-28.8 44.8-57.6 86.4-89.6 131.2-19.2 28.8-28.8 64-38.4 99.2-6.4 25.6-9.6 51.2-12.8 73.6v6.4c6.4 9.6 6.4 22.4 3.2 35.2-9.6 35.2-19.2 70.4-25.6 102.4-3.2 16-6.4 32-12.8 44.8-3.2 6.4-3.2 12.8-6.4 19.2-6.4 12.8-22.4 16-32 3.2-3.2-6.4-6.4-12.8-9.6-22.4-3.2-9.6-6.4-16-9.6-25.6v-16l28.8 19.2c9.6-48 22.4-92.8 32-140.8-32 16-60.8 35.2-86.4 57.6 3.2 3.2 6.4 3.2 6.4 6.4 6.4 6.4 12.8 9.6 16 19.2 3.2 9.6 0 19.2-9.6 22.4-19.2 9.6-38.4 6.4-57.6 3.2 6.4-9.6 16-12.8 16-25.6-3.2 3.2-6.4 6.4-9.6 6.4l-19.2 9.6-3.2 3.2c-3.2 12.8-3.2 28.8-6.4 41.6 0 3.2 3.2 9.6 3.2 16 3.2 6.4 3.2 9.6 6.4 16 0 3.2 3.2 6.4 3.2 9.6v16c-3.2 9.6-9.6 16-12.8 22.4 0 6.4-6.4 6.4-9.6 6.4 0 0-3.2 0-3.2-3.2-32-22.4-25.6-16-35.2-48-6.4-19.2-16-38.4-28.8-57.6-3.2-3.2-3.2-9.6-6.4-16 9.6 6.4 12.8-3.2 16-6.4 35.2-44.8 67.2-86.4 102.4-131.2 6.4-9.6 12.8-19.2 12.8-32 0-6.4 3.2-9.6 3.2-16 3.2-6.4 6.4-9.6 12.8-6.4 3.2 0 6.4 3.2 9.6 6.4 6.4 6.4 9.6 12.8 16 19.2 9.6 12.8 9.6 28.8-3.2 41.6-9.6 9.6-22.4 19.2-32 28.8-32 28.8-67.2 60.8-99.2 89.6-6.4 3.2-9.6 9.6-16 12.8 9.6 12.8 22.4 22.4 38.4 25.6 3.2-6.4 6.4-16 9.6-22.4 0-3.2 3.2-6.4 3.2-9.6V736c-3.2-6.4-3.2-9.6 3.2-12.8 19.2-12.8 38.4-28.8 57.6-41.6 19.2-16 41.6-28.8 60.8-41.6 6.4-3.2 12.8-9.6 16-16 9.6-9.6 19.2-16 32-16v-6.4c0-41.6 12.8-80 28.8-118.4 25.6-60.8 57.6-118.4 99.2-172.8 6.4-6.4 9.6-12.8 12.8-22.4 3.2-6.4 3.2-9.6 6.4-16 0-6.4 0-9.6-6.4-9.6h-16c-19.2 3.2-35.2 16-51.2 25.6-16 12.8-35.2 25.6-54.4 32-12.8 3.2-25.6 6.4-41.6 6.4-6.4 0-16 0-22.4-6.4-3.2-3.2-3.2-6.4-3.2-9.6 0-3.2 3.2-6.4 6.4-6.4 25.6-3.2 51.2-16 73.6-28.8 28.8-16 57.6-28.8 86.4-41.6 25.6-12.8 51.2-3.2 60.8 19.2z m-288 38.4c9.6 0 16 6.4 16 16 0 3.2 0 9.6-3.2 12.8-6.4 19.2-12.8 35.2-19.2 54.4-6.4 25.6-16 48-22.4 73.6-6.4 35.2-9.6 67.2-12.8 102.4 0 12.8 0 25.6-3.2 38.4 0 6.4-3.2 9.6-6.4 12.8-6.4 6.4-16 9.6-25.6 16-9.6-19.2-19.2-35.2-28.8-54.4-3.2 3.2-3.2 6.4-6.4 9.6-6.4 9.6-9.6 19.2-16 28.8-9.6 12.8-19.2 22.4-32 32 3.2 6.4 0 6.4-3.2 9.6-12.8 3.2-19.2-3.2-19.2-16v-12.8c0-9.6 0-19.2 6.4-28.8 12.8-28.8 16-57.6 25.6-86.4 0-6.4 3.2-12.8 3.2-16 3.2-9.6 0-19.2-6.4-25.6-9.6-9.6-6.4-19.2 6.4-25.6 19.2-9.6 44.8 0 54.4 16 6.4 12.8 6.4 25.6-3.2 35.2l-6.4 6.4c-22.4 16-35.2 38.4-44.8 67.2-3.2 9.6-6.4 22.4-9.6 32 3.2-3.2 9.6-6.4 12.8-9.6 6.4-9.6 12.8-16 19.2-25.6 6.4-9.6 12.8-19.2 22.4-25.6 6.4 6.4 12.8 9.6 19.2 16 16-67.2 32-134.4 44.8-201.6l-57.6 19.2c-9.6 3.2-19.2 0-25.6-9.6-3.2-6.4-6.4-9.6-9.6-16 3.2-6.4 9.6-3.2 12.8-6.4 9.6 0 16 0 25.6-3.2 19.2-3.2 35.2-9.6 48-22.4 19.2-9.6 32-12.8 44.8-12.8z m70.4 76.8c16 3.2 32 9.6 41.6 25.6 3.2 6.4 3.2 12.8 0 16-3.2 3.2-9.6 9.6-16 12.8-12.8 3.2-22.4 6.4-35.2 12.8-3.2 0-3.2 0-6.4 3.2 16 12.8 25.6 32 35.2 48 3.2 3.2 0 9.6 0 12.8-6.4 9.6-22.4 12.8-35.2 6.4-6.4-3.2-12.8-9.6-12.8-19.2-3.2-16-3.2-28.8 3.2-44.8l3.2-3.2c6.4-6.4 12.8-16 19.2-22.4 3.2-3.2 3.2-6.4 0-9.6-3.2-3.2-6.4-6.4-9.6-12.8-3.2-3.2-3.2-9.6 0-16 3.2-9.6 6.4-12.8 12.8-9.6z" fill="#FEFEFE" p-id="4323"></path></svg>